# xmcd
#
# Track frame offsets:
#	150
#	16367
#	36526
#	53662
#	72310
#	90660
#	108903
#	127146
#	144092
#	162928
#	180820
#	194445
#
# Disc length: 2771 seconds
#
# Revision: 0
# Processed by: cddbd v1.4PL0 Copyright (c) Steve Scherf et al.
# Submitted via: dBpowerAMP V4.0
#
DISCID=9e0ad10c
DTITLE=David Bisbal  - Corazon Latino
DYEAR=2002
DGENRE=
TTITLE0=Ave María
TTITLE1=Digale
TTITLE2=Un amor que viene y va
TTITLE3=Fuiste mía
TTITLE4=Looraré las penas
TTITLE5=Quiero perderme en tu cuerpo
TTITLE6=Como será
TTITLE7=Vuelvo a tí (Duo Chenoa)
TTITLE8=Por ti 
TTITLE9=Por cuanto tiempo 
TTITLE10=Corazon latino
TTITLE11=Mienteme
EXTD=David Bisbal, Corazón Latino
EXTT0=
EXTT1=
EXTT2=
EXTT3=
EXTT4=
EXTT5=
EXTT6=
EXTT7=
EXTT8=
EXTT9=
EXTT10=
EXTT11=
PLAYORDER=
